<svg width="25" height="25" viewBox="0 0 25 25" fill="none" xmlns="http://www.w3.org/2000/svg">
<path d="M19.698 1.51522L1.51523 19.698C0.678538 20.5347 0.527752 21.7409 1.17851 22.3917L2.35702 23.5702C3.00778 24.221 4.21407 24.0702 5.05076 23.2335L23.2335 5.05076C24.0702 4.21407 24.221 3.00778 23.5702 2.35702L22.3917 1.1785C21.741 0.527745 20.5347 0.678532 19.698 1.51522Z" fill="white"/>
<path d="M23.2335 19.698L5.05075 1.51523C4.21406 0.678538 3.00777 0.527752 2.35701 1.17851L1.1785 2.35702C0.527741 3.00778 0.678527 4.21407 1.51522 5.05076L19.698 23.2335C20.5347 24.0702 21.7409 24.221 22.3917 23.5702L23.5702 22.3917C24.221 21.741 24.0702 20.5347 23.2335 19.698Z" fill="white"/>
</svg>
