<svg width="82" height="83" viewBox="0 0 82 83" fill="none" xmlns="http://www.w3.org/2000/svg">
<rect x="1" y="1.19666" width="80" height="80" rx="2" stroke="#E2E2E2" stroke-width="2"/>
<path d="M11 12.1967L14 15.6967L11 19.1967" stroke="#E2E2E2" stroke-width="2" stroke-linecap="round" stroke-linejoin="round"/>
<path d="M19 19.1967H25" stroke="#E2E2E2" stroke-width="2" stroke-linecap="round"/>
<path d="M52.2382 66.0513L52.2382 66.0513C52.237 66.0526 52.2357 66.0538 52.2345 66.055C52.2247 66.0648 52.215 66.0745 52.2053 66.0841C52.0429 66.2463 51.899 66.3898 51.7977 66.5688C51.6963 66.7478 51.6472 66.945 51.5918 67.1677C51.5881 67.1826 51.5844 67.1976 51.5806 67.2128L50.317 72.2669C50.3148 72.2757 50.3126 72.2847 50.3104 72.2936C50.2711 72.4503 50.2292 72.6176 50.2155 72.7581C50.2003 72.9129 50.2039 73.1739 50.4133 73.3833C50.6227 73.5928 50.8837 73.5963 51.0385 73.5811C51.179 73.5674 51.3463 73.5255 51.503 73.4863C51.5119 73.484 51.5209 73.4818 51.5297 73.4796L56.5838 72.216C56.599 72.2123 56.614 72.2085 56.6289 72.2048C56.8516 72.1494 57.0488 72.1003 57.2278 71.9989L56.9815 71.5638L57.2278 71.9989C57.4068 71.8976 57.5504 71.7537 57.7125 71.5913C57.7233 71.5804 57.7343 71.5695 57.7453 71.5584L70.3393 58.9644L70.3626 58.9411C70.676 58.6277 70.9461 58.3577 71.1333 58.1123C71.3339 57.8494 71.4858 57.557 71.4858 57.1966C71.4858 56.8362 71.3339 56.5438 71.1333 56.2809C70.9461 56.0356 70.6761 55.7655 70.3626 55.4521L70.3393 55.4288L68.3678 53.4573L68.3445 53.434C68.0311 53.1206 67.7611 52.8505 67.5157 52.6633C67.2528 52.4627 66.9604 52.3108 66.6 52.3108C66.2396 52.3108 65.9472 52.4627 65.6843 52.6633C65.439 52.8505 65.1689 53.1206 64.8555 53.434L64.8322 53.4573L52.2382 66.0513Z" stroke="#E2E2E2"/>
<path d="M62.6 54.7967L67.4 51.5967L72.2 56.3967L69 61.1967L62.6 54.7967Z" fill="#E2E2E2"/>
</svg>
