<svg width="80" height="81" viewBox="0 0 80 81" fill="none" xmlns="http://www.w3.org/2000/svg">
<g clip-path="url(#clip0_3_105)">
<path d="M60 0.196655H20C8.95431 0.196655 0 9.15096 0 20.1967V60.1967C0 71.2423 8.95431 80.1967 20 80.1967H60C71.0457 80.1967 80 71.2423 80 60.1967V20.1967C80 9.15096 71.0457 0.196655 60 0.196655Z" fill="white"/>
<path d="M50.4 28.236L44.0168 39.854L44.498 40.4703H50.4V48.7543H39.9415L39.064 49.3511L36.2235 54.7999C36.204 54.7999 35.6645 55.3579 35.6255 55.3967H29.6V49.3511L35.658 37.7133L35.177 37.1165H29.6V28.8393H39.74L40.6176 28.2425L43.458 22.7935C43.4776 22.7935 44.0168 22.2356 44.056 22.1967H50.4V28.236Z" fill="black"/>
<path d="M19.5428 30.1967H5.25716C3.67902 30.1967 2.4 31.4757 2.4 33.0538V47.3395C2.4 48.9175 3.67902 50.1967 5.25716 50.1967H19.5428C21.121 50.1967 22.4 48.9175 22.4 47.3395V33.0538C22.4 31.4757 21.121 30.1967 19.5428 30.1967ZM8.11428 45.9111C7.32544 45.9111 6.68572 45.2711 6.68572 44.4823C6.68572 43.6935 7.32544 43.0539 8.11428 43.0539C8.90312 43.0539 9.54284 43.6935 9.54284 44.4823C9.54284 45.2711 8.90312 45.9111 8.11428 45.9111ZM8.11428 41.6251C7.32544 41.6251 6.68572 40.9855 6.68572 40.1967C6.68572 39.4078 7.32544 38.7681 8.11428 38.7681C8.90312 38.7681 9.54284 39.4078 9.54284 40.1967C9.54284 40.9855 8.90312 41.6251 8.11428 41.6251ZM8.11428 37.3395C7.32544 37.3395 6.68572 36.6998 6.68572 35.9109C6.68572 35.1221 7.32544 34.4824 8.11428 34.4824C8.90312 34.4824 9.54284 35.1221 9.54284 35.9109C9.54284 36.6998 8.90312 37.3395 8.11428 37.3395ZM16.6857 45.9111C15.8969 45.9111 15.2572 45.2711 15.2572 44.4823C15.2572 43.6935 15.8969 43.0539 16.6857 43.0539C17.4746 43.0539 18.1143 43.6935 18.1143 44.4823C18.1143 45.2711 17.4746 45.9111 16.6857 45.9111ZM16.6857 41.6251C15.8969 41.6251 15.2572 40.9855 15.2572 40.1967C15.2572 39.4078 15.8969 38.7681 16.6857 38.7681C17.4746 38.7681 18.1143 39.4078 18.1143 40.1967C18.1143 40.9855 17.4746 41.6251 16.6857 41.6251ZM16.6857 37.3395C15.8969 37.3395 15.2572 36.6998 15.2572 35.9109C15.2572 35.1221 15.8969 34.4824 16.6857 34.4824C17.4746 34.4824 18.1143 35.1221 18.1143 35.9109C18.1143 36.6998 17.4746 37.3395 16.6857 37.3395Z" fill="black"/>
<path d="M74.7428 30.1967H60.4572C58.8792 30.1967 57.6 31.4757 57.6 33.0538V47.3395C57.6 48.9175 58.8792 50.1967 60.4572 50.1967H74.7428C76.3208 50.1967 77.6 48.9175 77.6 47.3395V33.0538C77.6 31.4757 76.3208 30.1967 74.7428 30.1967ZM67.6 41.6251C66.8112 41.6251 66.1716 40.9855 66.1716 40.1967C66.1716 39.4078 66.8112 38.7681 67.6 38.7681C68.3888 38.7681 69.0284 39.4078 69.0284 40.1967C69.0284 40.9855 68.3888 41.6251 67.6 41.6251Z" fill="black"/>
</g>
<defs>
<clipPath id="clip0_3_105">
<rect width="80" height="80" fill="white" transform="translate(0 0.196655)"/>
</clipPath>
</defs>
</svg>
