<svg width="50" height="50" viewBox="0 0 50 50" fill="none" xmlns="http://www.w3.org/2000/svg">
<rect width="50" height="50" rx="25" fill="white"/>
<path d="M25 3.125C12.9141 3.125 3.125 12.9141 3.125 25C3.125 34.6797 9.38672 42.8555 18.082 45.7539C19.1758 45.9453 19.5859 45.2891 19.5859 44.7148C19.5859 44.1953 19.5586 42.4727 19.5586 40.6406C14.0625 41.6523 12.6406 39.3008 12.2031 38.0703C11.957 37.4414 10.8906 35.5 9.96094 34.9805C9.19531 34.5703 8.10156 33.5586 9.93359 33.5312C11.6562 33.5039 12.8867 35.1172 13.2969 35.7734C15.2656 39.082 18.4102 38.1523 19.668 37.5781C19.8594 36.1562 20.4336 35.1992 21.0625 34.6523C16.1953 34.1055 11.1094 32.2187 11.1094 23.8516C11.1094 21.4727 11.957 19.5039 13.3516 17.9727C13.1328 17.4258 12.3672 15.1836 13.5703 12.1758C13.5703 12.1758 15.4023 11.6016 19.5859 14.418C21.3359 13.9258 23.1953 13.6797 25.0547 13.6797C26.9141 13.6797 28.7734 13.9258 30.5234 14.418C34.707 11.5742 36.5391 12.1758 36.5391 12.1758C37.7422 15.1836 36.9766 17.4258 36.7578 17.9727C38.1523 19.5039 39 21.4453 39 23.8516C39 32.2461 33.8867 34.1055 29.0195 34.6523C29.8125 35.3359 30.4961 36.6484 30.4961 38.6992C30.4961 41.625 30.4688 43.9766 30.4688 44.7148C30.4688 45.2891 30.8789 45.9727 31.9727 45.7539C36.3152 44.2879 40.0888 41.497 42.7621 37.774C45.4354 34.051 46.8738 29.5834 46.875 25C46.875 12.9141 37.0859 3.125 25 3.125Z" fill="black"/>
</svg>
