<svg width="50" height="50" viewBox="0 0 50 50" fill="none" xmlns="http://www.w3.org/2000/svg">
<path d="M7.47821 48.25V5.95828C7.47821 3.54201 9.43693 1.58328 11.8532 1.58328H38.1032C40.5195 1.58328 42.4782 3.54201 42.4782 5.95828V48.25L24.9782 38.0416L7.47821 48.25Z" fill="url(#paint0_linear_1_75)"/>
<path d="M7.97821 47.3794V5.95828C7.97821 3.81815 9.71308 2.08328 11.8532 2.08328H38.1032C40.2433 2.08328 41.9782 3.81815 41.9782 5.95828V47.3794L25.2301 37.6097L24.9782 37.4628L24.7263 37.6097L7.97821 47.3794Z" stroke="#E2E2E2" stroke-opacity="0.5"/>
<path d="M27.4305 8.74547C27.0016 6.10434 25.9901 4.24994 24.813 4.24994C23.6359 4.24994 22.6244 6.10434 22.1956 8.74547H27.4305ZM21.9737 11.5848C21.9737 12.2413 22.0092 12.8713 22.0713 13.4776H27.5517C27.6139 12.8713 27.6493 12.2413 27.6493 11.5848C27.6493 10.9282 27.6139 10.2982 27.5517 9.6919H22.0713C22.0092 10.2982 21.9737 10.9282 21.9737 11.5848ZM31.577 8.74547C30.7312 6.73727 29.0187 5.18454 26.904 4.55753C27.6257 5.55719 28.1226 7.0626 28.3828 8.74547H31.577ZM22.7191 4.55753C20.6073 5.18454 18.8919 6.73727 18.049 8.74547H21.2432C21.5005 7.0626 21.9974 5.55719 22.7191 4.55753ZM31.8935 9.6919H28.5011C28.5632 10.313 28.5987 10.9489 28.5987 11.5848C28.5987 12.2206 28.5632 12.8565 28.5011 13.4776H31.8905C32.0532 12.8713 32.1449 12.2413 32.1449 11.5848C32.1449 10.9282 32.0532 10.2982 31.8935 9.6919ZM21.0273 11.5848C21.0273 10.9489 21.0628 10.313 21.1249 9.6919H17.7326C17.5729 10.2982 17.4782 10.9282 17.4782 11.5848C17.4782 12.2413 17.5729 12.8713 17.7326 13.4776H21.122C21.0628 12.8565 21.0273 12.2206 21.0273 11.5848ZM22.1956 14.424C22.6244 17.0652 23.6359 18.9196 24.813 18.9196C25.9901 18.9196 27.0016 17.0652 27.4305 14.424H22.1956ZM26.907 18.612C29.0187 17.985 30.7341 16.4322 31.58 14.424H28.3858C28.1255 16.1069 27.6286 17.6123 26.907 18.612ZM18.049 14.424C18.8949 16.4322 20.6073 17.985 22.722 18.612C22.0004 17.6123 21.5035 16.1069 21.2432 14.424H18.049Z" fill="#111111"/>
<path d="M27.4305 8.99547H27.7244L27.6773 8.7054C27.4599 7.36692 27.0928 6.21154 26.6194 5.38324C26.1541 4.56904 25.5421 3.99994 24.813 3.99994C24.084 3.99994 23.4719 4.56904 23.0066 5.38324C22.5333 6.21154 22.1661 7.36692 21.9488 8.7054L21.9017 8.99547H22.1956H27.4305ZM21.8226 13.5031L21.8456 13.7276H22.0713H27.5517H27.7774L27.8004 13.5031C27.8634 12.8889 27.8993 12.2504 27.8993 11.5848C27.8993 10.9191 27.8634 10.2806 27.8004 9.66642L27.7774 9.4419H27.5517H22.0713H21.8456L21.8226 9.66642C21.7597 10.2806 21.7237 10.9191 21.7237 11.5848C21.7237 12.2504 21.7597 12.8889 21.8226 13.5031ZM31.577 8.99547H31.9536L31.8074 8.64842C30.9328 6.57192 29.1623 4.96635 26.9751 4.31784L26.2722 4.10944L26.7013 4.70386C27.39 5.65789 27.8783 7.11895 28.1358 8.78368L28.1685 8.99547H28.3828H31.577ZM22.9218 4.70386L23.3511 4.10906L22.6479 4.31787C20.4639 4.96635 18.6902 6.57183 17.8185 8.64871L17.673 8.99547H18.049H21.2432H21.4579L21.4903 8.78325C21.7448 7.11884 22.2331 5.65784 22.9218 4.70386ZM32.1352 9.62821L32.0862 9.4419H31.8935H28.5011H28.2249L28.2524 9.71677C28.3137 10.3305 28.3487 10.9581 28.3487 11.5848C28.3487 12.2114 28.3137 12.839 28.2524 13.4527L28.2249 13.7276H28.5011H31.8905H32.0823L32.132 13.5424C32.2999 12.9167 32.3949 12.2649 32.3949 11.5848C32.3949 10.9046 32.2999 10.2532 32.1352 9.62821ZM21.3737 9.71677L21.4012 9.4419H21.1249H17.7326H17.5399L17.4908 9.62821C17.3264 10.2524 17.2282 10.9039 17.2282 11.5848C17.2282 12.2656 17.3264 12.9171 17.4908 13.5413L17.5399 13.7276H17.7326H21.122H21.3969L21.3708 13.4539C21.3123 12.8393 21.2773 12.2115 21.2773 11.5848C21.2773 10.9581 21.3123 10.3305 21.3737 9.71677ZM22.1956 14.174H21.9017L21.9488 14.4641C22.1661 15.8026 22.5333 16.958 23.0066 17.7863C23.4719 18.6005 24.084 19.1696 24.813 19.1696C25.5421 19.1696 26.1541 18.6005 26.6194 17.7863C27.0928 16.958 27.4599 15.8026 27.6773 14.4641L27.7244 14.174H27.4305H22.1956ZM26.7043 18.4656L26.2749 19.0604L26.9782 18.8516C29.1622 18.2031 30.9357 16.5977 31.8104 14.5211L31.9566 14.174H31.58H28.3858H28.1715L28.1387 14.3858C27.8813 16.0505 27.393 17.5116 26.7043 18.4656ZM18.049 14.174H17.6725L17.8186 14.5211C18.6933 16.5976 20.4637 18.2031 22.6509 18.8517L23.3538 19.0601L22.9247 18.4656C22.236 17.5116 21.7477 16.0505 21.4903 14.3858L21.4575 14.174H21.2432H18.049Z" stroke="#E2E2E2" stroke-opacity="0.5" stroke-width="0.5"/>
<path d="M25.8574 28.5375C27.0243 29.7057 27.0083 31.5785 25.8644 32.7287C25.8622 32.7311 25.8597 32.7336 25.8574 32.736L24.5449 34.0485C23.3872 35.2061 21.5039 35.2059 20.3464 34.0485C19.1888 32.8911 19.1888 31.0075 20.3464 29.85L21.0712 29.1253C21.2633 28.9331 21.5943 29.0609 21.6042 29.3325C21.6169 29.6786 21.679 30.0264 21.7935 30.3622C21.8323 30.4759 21.8046 30.6017 21.7196 30.6866L21.464 30.9422C20.9166 31.4896 20.8995 32.3809 21.4414 32.9336C21.9888 33.4918 22.8884 33.4951 23.44 32.9436L24.7525 31.6313C25.3031 31.0807 25.3008 30.1907 24.7525 29.6424C24.6802 29.5703 24.6074 29.5142 24.5505 29.4751C24.5103 29.4474 24.477 29.4108 24.4535 29.368C24.4299 29.3253 24.4167 29.2776 24.4148 29.2289C24.4071 29.0225 24.4802 28.8098 24.6433 28.6467L25.0545 28.2355C25.1623 28.1276 25.3315 28.1144 25.4565 28.2017C25.5997 28.3017 25.7339 28.4141 25.8574 28.5375ZM28.61 25.7848C27.4526 24.6273 25.5692 24.6272 24.4116 25.7848L23.0991 27.0973C23.0967 27.0996 23.0942 27.1022 23.092 27.1045C21.9482 28.2547 21.9321 30.1276 23.0991 31.2957C23.2226 31.4192 23.3567 31.5316 23.4999 31.6316C23.6249 31.7188 23.7941 31.7056 23.9019 31.5978L24.3131 31.1865C24.4762 31.0234 24.5493 30.8108 24.5416 30.6044C24.5397 30.5556 24.5265 30.5079 24.5029 30.4652C24.4794 30.4224 24.4461 30.3858 24.4059 30.3582C24.349 30.319 24.2762 30.263 24.2039 30.1908C23.6556 29.6425 23.6533 28.7525 24.2039 28.2019L25.5164 26.8896C26.068 26.3381 26.9676 26.3414 27.515 26.8996C28.057 27.4523 28.0398 28.3436 27.4924 28.891L27.2368 29.1466C27.1518 29.2316 27.1241 29.3573 27.1629 29.4711C27.2774 29.8069 27.3395 30.1546 27.3522 30.5008C27.3621 30.7724 27.6931 30.9001 27.8853 30.7079L28.61 29.9832C29.7676 28.8258 29.7676 26.9422 28.61 25.7848Z" fill="#111111"/>
<path d="M25.687 32.5523L25.6871 32.5525C26.7347 31.4991 26.7492 29.7842 25.6806 28.7143C25.6806 28.7143 25.6805 28.7143 25.6805 28.7142M25.687 32.5523L25.6805 28.7142M25.687 32.5523L25.6806 32.5592L25.6806 32.5592L25.6801 32.5598L25.6806 32.5592L24.3681 33.8717C23.3081 34.9317 21.583 34.9315 20.5232 33.8717L20.5232 33.8717C19.4632 32.8119 19.4632 31.0866 20.5232 30.0268L20.5232 30.0268L21.2479 29.3021C21.2596 29.2904 21.2704 29.2859 21.2798 29.2842C21.2904 29.2822 21.303 29.2832 21.3157 29.2881C21.3283 29.293 21.3379 29.3006 21.3439 29.3086C21.3491 29.3156 21.3538 29.3254 21.3544 29.3416L21.3544 29.3416C21.3679 29.7114 21.4342 30.0833 21.5569 30.4429L21.5569 30.4429C21.5657 30.4688 21.5586 30.4941 21.5428 30.5098L21.7196 30.6866L21.5428 30.5098L21.2872 30.7655C20.6458 31.4068 20.622 32.4551 21.2629 33.1087L21.4414 32.9336L21.2629 33.1087C21.9077 33.7662 22.967 33.7701 23.6167 33.1204C23.6167 33.1204 23.6168 33.1204 23.6168 33.1204L24.9292 31.8081L24.9293 31.8081C25.5778 31.1596 25.5749 30.1113 24.9293 29.4657L24.9291 29.4655C24.8436 29.3802 24.7584 29.3147 24.6923 29.2692L24.692 29.269C24.6839 29.2634 24.6772 29.256 24.6724 29.2474C24.6677 29.2387 24.665 29.2291 24.6646 29.2193L24.4148 29.2289M25.687 32.5523L25.3134 28.4066C25.2857 28.3873 25.2516 28.3919 25.2313 28.4123L24.8201 28.8235L24.8201 28.8235C24.709 28.9345 24.6594 29.0785 24.6646 29.2195L24.4148 29.2289M25.6805 28.7142C25.5674 28.6012 25.4446 28.4982 25.3135 28.4067L25.6805 28.7142ZM24.4148 29.2289C24.4167 29.2776 24.4299 29.3253 24.4535 29.368L25.4565 28.2017C25.3315 28.1144 25.1623 28.1276 25.0545 28.2355L24.6433 28.6467C24.4802 28.8098 24.4071 29.0225 24.4148 29.2289ZM28.4332 25.9616L28.4332 25.9616C27.3734 24.9017 25.6483 24.9016 24.5883 25.9616L23.2758 27.274M28.4332 25.9616L27.6692 29.0678M28.4332 25.9616C29.4932 27.0214 29.4932 28.7466 28.4332 29.8064L28.4332 29.8064L27.7085 30.5311C27.6968 30.5429 27.686 30.5473 27.6766 30.549C27.666 30.551 27.6534 30.5501 27.6407 30.5452C27.6281 30.5403 27.6185 30.5326 27.6125 30.5246C27.6073 30.5177 27.6026 30.5078 27.602 30.4916C27.5885 30.1219 27.5222 29.7499 27.3995 29.3904L27.3995 29.3903C27.3907 29.3645 27.3978 29.3392 27.4136 29.3234L27.6692 29.0678M28.4332 25.9616L27.4924 28.891L27.6692 29.0678M23.2758 27.274L23.2763 27.2734L23.2758 27.274L23.2758 27.274ZM23.2758 27.274L23.2758 27.2741L23.2758 27.274L23.2694 27.2809L23.2693 27.2808C22.2217 28.3342 22.2072 30.0492 23.2759 31.119C23.389 31.2321 23.5118 31.335 23.6429 31.4266C23.6707 31.4459 23.7048 31.4413 23.7251 31.421L24.1363 31.0098L24.1363 31.0097C24.2474 30.8987 24.297 30.7548 24.2918 30.6137L24.5416 30.6044M24.5416 30.6044L24.2918 30.614C24.2914 30.6041 24.2887 30.5945 24.284 30.5859C24.2792 30.5772 24.2725 30.5698 24.2644 30.5643L24.2641 30.5641C24.198 30.5186 24.1128 30.453 24.0273 30.3677L24.0271 30.3676C23.3815 29.7219 23.3786 28.6737 24.0271 28.0252L24.0272 28.0252L25.3396 26.7129C25.3397 26.7129 25.3397 26.7129 25.3397 26.7128C25.9894 26.0631 27.0487 26.067 27.6935 26.7246L27.515 26.8996L27.6935 26.7246C28.3344 27.3782 28.3106 28.4264 27.6692 29.0678M24.5416 30.6044C24.5397 30.5556 24.5265 30.5079 24.5029 30.4652C24.4794 30.4224 24.4461 30.3858 24.4059 30.3582L23.0991 31.2957C23.2226 31.4192 23.3567 31.5316 23.4999 31.6316C23.6249 31.7188 23.7941 31.7056 23.9019 31.5978L24.3131 31.1865C24.4762 31.0234 24.5493 30.8108 24.5416 30.6044Z" stroke="#E2E2E2" stroke-opacity="0.5" stroke-width="0.5"/>
<defs>
<linearGradient id="paint0_linear_1_75" x1="7.47821" y1="1.58328" x2="42.8115" y2="48.2499" gradientUnits="userSpaceOnUse">
<stop stop-color="#6D01F5"/>
<stop offset="1" stop-color="#33EBF7" stop-opacity="0"/>
</linearGradient>
</defs>
</svg>
